<mxfile>
    <diagram id="K1PiYW7plfjryU15QX6y" name="Page-1">
        <mxGraphModel dx="591" dy="927" grid="1" gridSize="10" guides="1" tooltips="1" connect="1" arrows="1" fold="1" page="1" pageScale="1" pageWidth="827" pageHeight="1169" math="0" shadow="0">
            <root>
                <mxCell id="0"/>
                <mxCell id="1" parent="0"/>
                <mxCell id="24" value="Exemplo 3" style="html=1;dashed=0;whitespace=wrap;verticalAlign=top;" parent="1" vertex="1">
                    <mxGeometry x="200" y="600" width="480" height="160" as="geometry"/>
                </mxCell>
                <mxCell id="23" value="Exemplo 2" style="html=1;dashed=0;whitespace=wrap;verticalAlign=top;" parent="1" vertex="1">
                    <mxGeometry x="200" y="400" width="480" height="160" as="geometry"/>
                </mxCell>
                <mxCell id="22" value="Exemplo 1" style="html=1;dashed=0;whitespace=wrap;verticalAlign=top;" parent="1" vertex="1">
                    <mxGeometry x="200" y="200" width="480" height="160" as="geometry"/>
                </mxCell>
                <mxCell id="3" value="Questão 15" style="text;strokeColor=none;fillColor=none;html=1;fontSize=24;fontStyle=1;verticalAlign=middle;align=center;" parent="1" vertex="1">
                    <mxGeometry x="240" y="40" width="348" height="40" as="geometry"/>
                </mxCell>
                <mxCell id="4" value="&lt;h2&gt;Dê ao menos três exemplos de entidades com relacionamentos identificadores (entidades fracas).&lt;/h2&gt;" style="text;strokeColor=none;fillColor=none;align=center;verticalAlign=middle;whiteSpace=wrap;rounded=0;html=1;" parent="1" vertex="1">
                    <mxGeometry x="80" y="80" width="650" height="40" as="geometry"/>
                </mxCell>
                <mxCell id="7" value="0,n" style="edgeStyle=orthogonalEdgeStyle;rounded=0;orthogonalLoop=1;jettySize=auto;html=1;endArrow=none;endFill=0;" parent="1" source="5" target="6" edge="1">
                    <mxGeometry relative="1" as="geometry"/>
                </mxCell>
                <mxCell id="5" value="Empregado" style="whiteSpace=wrap;html=1;" parent="1" vertex="1">
                    <mxGeometry x="240" y="250" width="120" height="60" as="geometry"/>
                </mxCell>
                <mxCell id="9" value="1" style="edgeStyle=orthogonalEdgeStyle;rounded=0;orthogonalLoop=1;jettySize=auto;html=1;endArrow=none;endFill=0;strokeWidth=2;" parent="1" source="6" target="8" edge="1">
                    <mxGeometry relative="1" as="geometry"/>
                </mxCell>
                <mxCell id="6" value="Tem" style="shape=rhombus;double=1;perimeter=rhombusPerimeter;whiteSpace=wrap;html=1;align=center;fontFamily=Helvetica;fontSize=12;fontColor=#000000;strokeColor=#000000;fillColor=#ffffff;" parent="1" vertex="1">
                    <mxGeometry x="400" y="240" width="80" height="80" as="geometry"/>
                </mxCell>
                <mxCell id="8" value="Seguro de Vida" style="shape=ext;margin=3;double=1;whiteSpace=wrap;html=1;align=center;fontFamily=Helvetica;fontSize=12;fontColor=#000000;strokeColor=#000000;fillColor=#ffffff;" parent="1" vertex="1">
                    <mxGeometry x="520" y="250" width="120" height="60" as="geometry"/>
                </mxCell>
                <mxCell id="11" value="0,n" style="edgeStyle=orthogonalEdgeStyle;rounded=0;orthogonalLoop=1;jettySize=auto;html=1;endArrow=none;endFill=0;" parent="1" source="12" target="14" edge="1">
                    <mxGeometry relative="1" as="geometry"/>
                </mxCell>
                <mxCell id="12" value="Empregado" style="whiteSpace=wrap;html=1;" parent="1" vertex="1">
                    <mxGeometry x="240" y="450" width="120" height="60" as="geometry"/>
                </mxCell>
                <mxCell id="13" value="0,n" style="edgeStyle=orthogonalEdgeStyle;rounded=0;orthogonalLoop=1;jettySize=auto;html=1;endArrow=none;endFill=0;strokeWidth=2;" parent="1" source="14" target="15" edge="1">
                    <mxGeometry relative="1" as="geometry"/>
                </mxCell>
                <mxCell id="14" value="Tem" style="shape=rhombus;double=1;perimeter=rhombusPerimeter;whiteSpace=wrap;html=1;align=center;fontFamily=Helvetica;fontSize=12;fontColor=#000000;strokeColor=#000000;fillColor=#ffffff;" parent="1" vertex="1">
                    <mxGeometry x="400" y="440" width="80" height="80" as="geometry"/>
                </mxCell>
                <mxCell id="15" value="Dependentes" style="shape=ext;margin=3;double=1;whiteSpace=wrap;html=1;align=center;fontFamily=Helvetica;fontSize=12;fontColor=#000000;strokeColor=#000000;fillColor=#ffffff;" parent="1" vertex="1">
                    <mxGeometry x="520" y="450" width="120" height="60" as="geometry"/>
                </mxCell>
                <mxCell id="16" value="" style="edgeStyle=orthogonalEdgeStyle;rounded=0;orthogonalLoop=1;jettySize=auto;html=1;endArrow=none;endFill=0;" parent="1" source="17" target="19" edge="1">
                    <mxGeometry relative="1" as="geometry"/>
                </mxCell>
                <mxCell id="vudHxg_tl4jHwu6Mif1--24" value="0,n" style="edgeStyle=orthogonalEdgeStyle;rounded=0;orthogonalLoop=1;jettySize=auto;html=1;labelBackgroundColor=#ffffff;endArrow=none;endFill=0;strokeWidth=2;" edge="1" parent="1" source="17" target="19">
                    <mxGeometry relative="1" as="geometry"/>
                </mxCell>
                <mxCell id="17" value="Usuário" style="whiteSpace=wrap;html=1;" parent="1" vertex="1">
                    <mxGeometry x="240" y="640" width="120" height="60" as="geometry"/>
                </mxCell>
                <mxCell id="18" value="1" style="edgeStyle=orthogonalEdgeStyle;rounded=0;orthogonalLoop=1;jettySize=auto;html=1;endArrow=none;endFill=0;strokeWidth=2;" parent="1" source="19" target="20" edge="1">
                    <mxGeometry relative="1" as="geometry"/>
                </mxCell>
                <mxCell id="19" value="É" style="shape=rhombus;double=1;perimeter=rhombusPerimeter;whiteSpace=wrap;html=1;align=center;fontFamily=Helvetica;fontSize=12;fontColor=#000000;strokeColor=#000000;fillColor=#ffffff;" parent="1" vertex="1">
                    <mxGeometry x="400" y="630" width="80" height="80" as="geometry"/>
                </mxCell>
                <mxCell id="20" value="Inscrito" style="shape=ext;margin=3;double=1;whiteSpace=wrap;html=1;align=center;fontFamily=Helvetica;fontSize=12;fontColor=#000000;strokeColor=#000000;fillColor=#ffffff;" parent="1" vertex="1">
                    <mxGeometry x="520" y="640" width="120" height="60" as="geometry"/>
                </mxCell>
            </root>
        </mxGraphModel>
    </diagram>
</mxfile>